<svg xmlns="http://www.w3.org/2000/svg" viewBox="0 0 128 35.5">
  <path id="path" d="M2.8 15.1c0-5.9 5-10.8 11-10.8 2.6 0 5 .9 6.9 2.3.7.6.8 1.6.3 2.4-.6.8-1.7.9-2.4.3-1.3-1.1-3-1.6-4.8-1.6-2.1 0-4 .8-5.4 2.2-1.4 1.4-2.2 3.2-2.2 5.2S7 19 8.4 20.3c1.4 1.3 3.3 2.2 5.4 2.2 1.9 0 3.5-.6 4.8-1.6.7-.5 1.8-.4 2.4.3.5.8.4 1.8-.3 2.4-1.9 1.5-4.3 2.3-6.9 2.3-6 0-11-4.8-11-10.8zm24.8 8.6c-1.3-1.3-2.1-3.2-2.1-5.3 0-2 .8-3.8 2.1-5.3 1.3-1.4 3.1-2.3 5.2-2.3 2 0 3.8.9 5 2.3 1.3 1.4 2.1 3.2 2.1 5.3 0 2.1-.8 4-2.1 5.3-1.2 1.4-3 2.3-5 2.3-2.1 0-3.8-.9-5.2-2.3zm1.2-5.2c0 1.3.4 2.3 1.1 3.2.8.7 1.7 1.1 2.9 1.1 1.1 0 2-.4 2.8-1.1.8-.8 1.2-1.9 1.2-3.2 0-1.2-.4-2.3-1.2-3.1-.8-.7-1.7-1.1-2.8-1.1-1.1 0-2.1.5-2.9 1.1-.7.7-1.1 1.8-1.1 3.1zm18-13.6c.9 0 1.7.8 1.7 1.6v17.7c0 .9-.8 1.6-1.7 1.6-.9 0-1.6-.8-1.6-1.6V6.6c0-.9.7-1.7 1.6-1.7zm7 18.8c-1.3-1.3-2.1-3.2-2.1-5.3 0-2 .8-3.8 2.1-5.3 1.3-1.4 3.1-2.3 5.2-2.3 2 0 3.8.9 5 2.3 1.3 1.4 2.1 3.2 2.1 5.3 0 2.1-.8 4-2.1 5.3-1.2 1.4-3 2.3-5 2.3-2.1 0-3.8-.9-5.2-2.3zm1.2-5.2c0 1.3.4 2.3 1.1 3.2.7.7 1.7 1.1 2.9 1.1 1 0 2-.4 2.8-1.1.8-.8 1.2-1.9 1.2-3.2 0-1.2-.4-2.3-1.2-3.1-.8-.7-1.8-1.2-2.8-1.2-1.1 0-2.1.5-2.9 1.1-.7.8-1.1 1.9-1.1 3.2zm27.1-5.2L77.2 25c0 .1-.1.2-.1.2l-.2.2-.2.2c-.1.1-.1.1-.2.1h-.1c-.1 0-.2 0-.2.1h-.8c-.1 0-.1-.1-.2-.1h-.1c-.1 0-.1-.1-.3-.1l-.2-.2h-.1c0-.1-.1-.2-.1-.2-.1 0-.1-.1-.1-.2l-4.9-11.6c-.4-.8 0-1.7.9-2 .7-.4 1.6.1 2 .9l3.4 8.2 3.5-8.2c.3-.8 1.2-1.2 2-.9.9.3 1.3 1.1.9 1.9zm3.7 5.1c0-4.1 3.2-7.5 7.3-7.5 3.9 0 7 2.9 7.2 7v.4c-.1.7-.7 1.2-1.6 1.2h-9.5c.1.7.5 1.5 1 2 .6.7 1.8 1.3 2.9 1.4 1.1.1 2.4-.2 3.1-.8.6-.7 1.9-.6 2.3-.1.4.4.7 1.3 0 1.9-1.5 1.4-3.2 2-5.4 2-4.1 0-7.3-3.4-7.3-7.5zm3.3-1.4h8.5c-.3-1.2-1.8-3-4.4-3.2-2.6.1-3.9 1.9-4.1 3.2zM107 4.9c.9 0 1.7.8 1.7 1.6v17.7c0 .9-.8 1.6-1.7 1.6-.9 0-1.6-.8-1.6-1.6V6.6c-.1-.9.7-1.7 1.6-1.7zm18.9 7.6v11.4c0 4-3.2 7.2-7.2 7.2-1.1 0-2.2-.3-3.1-.8-.8-.4-1.1-1.3-.8-2.1.4-.7 1.4-1 2.1-.7.6.3 1.1.4 1.7.4 1.8 0 3.3-1.2 3.8-2.7-.8.5-1.9.7-2.8.7-3.5 0-6.3-2.9-6.3-6.3v-7.1c0-.9.8-1.6 1.6-1.6.9 0 1.6.7 1.6 1.6v7.1c0 1.7 1.4 3.1 3.1 3.1s3.1-1.3 3.1-3.1v-7.1c0-.9.7-1.6 1.6-1.6.8 0 1.6.7 1.6 1.6z"/>
</svg>
