<svg xmlns="http://www.w3.org/2000/svg"  viewBox="0 0 28 28">
	<g id="path">
		<path id="lovely" d="M10.6 23.5c-5.2 0-9.5-4.3-9.5-9.5s4.3-9.5 9.5-9.5c2.4 0 4.8.9 6.5 2.6.6.6.6 1.5.1 2.1-.6.6-1.5.6-2.1.1-1.2-1.2-2.8-1.8-4.5-1.8-3.6 0-6.5 2.9-6.5 6.5s2.9 6.5 6.5 6.5c1.7 0 3.3-.6 4.5-1.8.6-.6 1.5-.5 2.1.1.6.6.5 1.6-.1 2.1-1.7 1.7-4 2.6-6.5 2.6z"/>
		<path id="co" d="M20.8 23.4c-1.6 0-3.3-.6-4.6-1.9L9.7 15c-.6-.6-.6-1.6 0-2.2l6.5-6.5c2.4-2.4 6.1-2.5 8.6-.4 1.3 1.1 2 2.7 2.1 4.4 0 1.2-.3 2.5-1 3.5.7 1 1 2.3 1 3.5-.1 1.7-.8 3.3-2.1 4.4-1.1 1.2-2.6 1.7-4 1.7zm-7.2-10.1c-.4.4-.4 1 0 1.4l4.7 4.7c1.2 1.2 3.2 1.4 4.5.3.7-.6 1-1.4 1.1-2.3 0-.9-.3-1.7-.9-2.3-.6-.6-.6-1.5 0-2.1.6-.6.9-1.5.9-2.3 0-.9-.4-1.7-1.1-2.3-1.2-1.1-3.2-1-4.5.3l-4.7 4.6z"/>
	</g>
</svg>
